<?xml version="1.0" standalone="no"?>
<!DOCTYPE svg PUBLIC "-//W3C//DTD SVG 20010904//EN"
 "http://www.w3.org/TR/2001/REC-SVG-20010904/DTD/svg10.dtd">
<svg version="1.0" xmlns="http://www.w3.org/2000/svg"
 width="256.000000pt" height="256.000000pt" viewBox="0 0 256.000000 256.000000"
 preserveAspectRatio="xMidYMid meet">

<g transform="translate(0.000000,256.000000) scale(0.100000,-0.100000)"
fill="#000000" stroke="none">
<path d="M813 2465 c-182 -33 -320 -104 -457 -234 -124 -119 -205 -257 -248
-424 -30 -115 -30 -308 1 -422 83 -312 324 -552 636 -636 114 -31 316 -31 430
0 84 22 205 76 257 112 l30 22 402 -402 c318 -318 406 -401 427 -401 36 0 122
45 145 77 24 32 44 87 44 117 0 14 -128 149 -400 421 l-401 401 36 59 c42 70
88 187 106 270 18 85 16 284 -5 368 -33 138 -104 277 -199 389 -32 38 -46 48
-66 46 -45 -5 -38 -40 23 -114 116 -141 186 -331 186 -505 0 -306 -174 -589
-444 -719 -136 -65 -214 -84 -356 -84 -121 0 -192 14 -302 58 -231 93 -409
301 -474 551 -26 101 -24 284 5 390 60 227 208 408 416 510 115 57 184 75 317
82 114 6 185 -3 301 -40 61 -19 69 -20 83 -5 29 29 9 55 -62 78 -143 48 -293
60 -431 35z m1207 -1820 l384 -384 -17 -36 c-10 -22 -30 -42 -52 -52 l-36 -17
-282 282 -281 281 24 26 24 26 -27 26 -26 27 -26 -24 -26 -24 -75 76 -76 75
49 51 c26 27 50 50 53 51 3 1 178 -172 390 -384z"/>
<path d="M1376 2348 c-24 -13 -19 -44 10 -67 30 -24 54 -27 72 -9 17 17 15 35
-9 57 -26 24 -52 31 -73 19z"/>
<path d="M583 2142 c-109 -39 -178 -112 -210 -221 -30 -105 -1 -211 83 -301
26 -28 45 -51 43 -53 -2 -1 -26 -13 -54 -27 -135 -68 -232 -190 -169 -214 22
-8 39 2 73 45 72 89 205 149 331 149 118 0 223 -44 316 -132 40 -38 74 -32 74
12 0 35 -66 96 -150 137 -30 16 -57 29 -59 30 -2 2 17 25 43 53 67 72 90 128
90 220 0 90 -30 165 -89 225 -82 81 -219 114 -322 77z m223 -98 c30 -18 60
-48 79 -78 27 -44 30 -58 30 -126 0 -68 -3 -82 -30 -126 -19 -30 -49 -60 -79
-79 -44 -27 -58 -30 -126 -30 -68 0 -82 3 -126 30 -159 99 -150 335 18 419 74
38 163 34 234 -10z"/>
<path d="M1333 1911 c-53 -14 -122 -60 -154 -104 -82 -113 -73 -253 22 -362
18 -20 30 -37 28 -38 -2 -1 -26 -13 -54 -27 -112 -55 -216 -195 -244 -328 -24
-114 -9 -177 40 -170 23 3 24 8 30 88 9 116 37 186 106 260 78 84 159 122 273
128 73 4 97 0 158 -21 65 -23 74 -24 88 -10 27 28 16 44 -54 80 -2 1 15 25 37
53 91 115 89 258 -3 367 -55 65 -188 106 -273 84z m145 -86 c49 -21 81 -52
103 -100 61 -131 -34 -285 -176 -285 -217 0 -284 281 -90 383 39 21 115 21
163 2z"/>
</g>
</svg>
